<svg id="svg" xmlns="http://www.w3.org/2000/svg" width="400" height="400"
     viewBox="0, 0, 400,400" version="1.1">
    <g id="svgg">
        <path id="path0"
              d="M-0.000 71.023 C -0.000 71.871,0.162 72.347,0.400 72.200 C 0.620 72.064,0.800 72.188,0.801 72.476 C 0.802 73.159,2.892 75.600,3.475 75.600 C 3.722 75.600,3.836 75.943,3.726 76.361 C 3.590 76.883,3.784 77.205,4.343 77.382 C 4.792 77.524,5.269 77.987,5.403 78.410 C 5.537 78.833,6.087 79.525,6.624 79.947 C 7.161 80.370,7.600 80.837,7.600 80.986 C 7.600 81.483,8.750 82.416,9.229 82.307 C 9.488 82.248,9.783 82.425,9.883 82.700 C 9.984 82.975,9.861 83.200,9.610 83.200 C 9.358 83.200,9.281 82.992,9.438 82.738 C 9.616 82.450,9.548 82.385,9.255 82.566 C 8.546 83.004,9.181 83.698,10.077 83.464 C 10.641 83.316,10.801 83.420,10.644 83.829 C 10.501 84.203,10.693 84.400,11.200 84.400 C 11.705 84.400,11.899 84.598,11.757 84.968 C 11.449 85.770,12.794 87.688,13.480 87.425 C 13.789 87.306,13.936 87.381,13.806 87.590 C 13.594 87.934,14.915 89.600,15.400 89.600 C 15.510 89.600,15.594 89.696,15.586 89.814 C 15.578 89.932,15.850 90.307,16.189 90.647 C 16.529 90.986,16.704 91.431,16.578 91.635 C 16.452 91.839,16.631 92.114,16.975 92.246 C 17.319 92.378,17.600 92.706,17.600 92.975 C 17.600 93.244,18.030 93.695,18.556 93.976 C 19.082 94.258,19.742 94.918,20.024 95.444 C 20.305 95.970,20.775 96.400,21.068 96.400 C 21.360 96.400,21.600 96.766,21.600 97.213 C 21.600 97.659,21.870 98.129,22.200 98.255 C 22.530 98.382,22.800 98.736,22.800 99.043 C 22.800 99.349,23.041 99.600,23.336 99.600 C 23.630 99.600,24.093 100.086,24.363 100.679 C 24.757 101.543,24.928 101.643,25.221 101.179 C 25.507 100.728,25.589 100.799,25.594 101.500 C 25.597 101.995,25.780 102.400,26.000 102.400 C 26.220 102.400,26.400 102.670,26.400 103.000 C 26.400 103.727,27.041 103.793,27.371 103.100 C 27.502 102.825,27.534 103.005,27.442 103.500 C 27.333 104.086,27.471 104.400,27.837 104.400 C 28.147 104.400,28.355 104.617,28.300 104.882 C 28.245 105.147,28.393 105.372,28.629 105.382 C 29.265 105.409,30.400 106.656,30.400 107.329 C 30.400 107.651,30.670 108.018,31.000 108.145 C 31.330 108.271,31.600 108.737,31.600 109.180 C 31.600 109.705,31.948 110.072,32.600 110.236 L 33.600 110.487 33.600 131.040 L 33.600 151.594 51.167 151.497 C 62.710 151.433,68.711 151.537,68.667 151.800 C 68.572 152.366,71.948 152.541,72.595 152.004 C 73.002 151.667,73.308 151.748,73.865 152.343 C 74.876 153.420,78.644 154.014,78.269 153.036 C 78.032 152.418,78.084 152.413,78.894 152.981 C 80.032 153.778,86.397 153.879,86.406 153.100 C 86.411 152.739,86.510 152.754,86.762 153.153 C 87.012 153.547,87.526 153.628,88.556 153.435 C 89.709 153.218,90.000 153.289,90.000 153.782 C 90.000 154.304,90.720 154.400,94.624 154.400 C 97.884 154.400,99.167 154.530,98.975 154.840 C 98.778 155.160,98.928 155.160,99.525 154.840 C 100.641 154.243,101.199 154.303,100.200 154.912 C 99.517 155.329,99.926 155.444,103.000 155.698 C 104.980 155.862,107.680 156.098,109.000 156.221 C 110.320 156.345,111.793 156.472,112.274 156.503 C 112.755 156.534,113.058 156.707,112.947 156.887 C 112.836 157.066,112.549 157.092,112.311 156.945 C 112.041 156.778,111.992 156.864,112.183 157.173 C 112.352 157.446,112.790 157.591,113.157 157.495 C 113.524 157.399,114.050 157.564,114.328 157.861 C 114.650 158.205,115.763 158.400,117.416 158.400 C 119.123 158.400,119.966 158.553,119.900 158.850 C 119.845 159.098,120.050 159.391,120.356 159.502 C 120.696 159.626,120.803 159.529,120.632 159.252 C 120.478 159.003,120.543 158.800,120.776 158.800 C 121.009 158.800,121.200 158.960,121.200 159.156 C 121.200 159.496,122.247 159.748,125.800 160.262 C 126.680 160.390,127.544 160.743,127.720 161.047 C 127.896 161.351,128.256 161.597,128.520 161.594 C 128.846 161.590,128.826 161.478,128.457 161.244 C 128.079 161.004,128.049 160.817,128.357 160.626 C 128.601 160.476,128.800 160.523,128.800 160.730 C 128.800 160.938,129.272 161.417,129.849 161.795 C 130.426 162.174,130.768 162.271,130.607 162.012 C 130.409 161.692,130.618 161.710,131.258 162.070 C 131.776 162.362,132.344 162.825,132.520 163.100 C 132.696 163.375,133.086 163.600,133.387 163.600 C 133.687 163.600,134.024 163.375,134.135 163.100 C 134.296 162.700,134.343 162.700,134.368 163.100 C 134.386 163.375,134.670 163.600,135.000 163.600 C 135.330 163.600,135.600 163.780,135.600 164.000 C 135.600 164.220,136.241 164.400,137.024 164.400 C 137.882 164.400,138.348 164.561,138.197 164.805 C 138.058 165.030,138.495 165.319,139.182 165.456 C 139.861 165.592,140.509 165.852,140.621 166.034 C 140.734 166.216,141.119 166.252,141.478 166.115 C 141.934 165.940,142.038 166.015,141.822 166.365 C 141.601 166.722,141.783 166.827,142.456 166.733 C 143.180 166.631,143.430 166.809,143.528 167.500 C 143.632 168.235,143.909 168.400,145.040 168.400 C 145.925 168.400,146.511 168.625,146.664 169.023 C 146.796 169.366,147.141 169.555,147.431 169.443 C 147.767 169.315,147.878 169.452,147.737 169.820 C 147.597 170.184,147.763 170.400,148.181 170.400 C 148.574 170.400,148.733 170.215,148.568 169.948 C 148.399 169.675,148.508 169.567,148.844 169.674 C 149.150 169.772,149.578 170.245,149.795 170.726 C 150.012 171.207,150.447 171.600,150.762 171.600 C 151.076 171.600,151.224 171.709,151.091 171.843 C 150.709 172.225,152.289 173.716,152.765 173.422 C 153.026 173.260,153.099 173.399,152.953 173.779 C 152.774 174.245,152.981 174.400,153.781 174.400 C 154.390 174.400,154.741 174.572,154.600 174.800 C 154.464 175.020,154.476 175.399,154.626 175.643 C 154.822 175.959,154.986 175.947,155.200 175.600 C 155.378 175.311,155.500 175.560,155.500 176.213 C 155.500 176.818,155.793 177.476,156.150 177.676 C 156.508 177.876,156.800 178.301,156.800 178.620 C 156.800 178.939,156.980 179.200,157.200 179.200 C 157.420 179.200,157.600 179.470,157.600 179.800 C 157.600 180.130,157.791 180.400,158.024 180.400 C 158.257 180.400,158.344 180.567,158.218 180.771 C 158.092 180.975,158.323 181.249,158.733 181.379 C 159.413 181.595,160.300 183.520,160.554 185.332 C 160.610 185.735,160.875 186.199,161.141 186.364 C 161.408 186.529,161.643 187.504,161.664 188.532 C 161.685 189.559,161.859 190.400,162.051 190.400 C 162.243 190.400,162.400 190.670,162.400 191.000 C 162.400 191.330,162.591 191.600,162.824 191.600 C 163.057 191.600,163.136 191.780,163.000 192.000 C 162.864 192.220,162.943 192.400,163.176 192.400 C 163.752 192.400,163.754 200.682,163.178 200.874 C 162.946 200.951,162.690 201.371,162.609 201.807 C 162.528 202.243,162.426 202.690,162.383 202.800 C 162.340 202.910,162.327 203.135,162.353 203.300 C 162.379 203.465,162.228 203.600,162.017 203.600 C 161.806 203.600,161.682 204.275,161.741 205.100 C 161.808 206.025,161.554 207.105,161.081 207.917 C 160.633 208.687,160.394 209.656,160.507 210.249 C 160.629 210.887,160.497 211.341,160.151 211.474 C 159.848 211.591,159.600 212.116,159.600 212.643 C 159.600 213.259,159.369 213.600,158.951 213.600 C 158.392 213.600,158.379 213.693,158.851 214.265 C 159.296 214.804,159.301 214.963,158.879 215.105 C 158.019 215.395,156.394 217.349,156.803 217.602 C 157.011 217.731,156.826 218.093,156.391 218.406 C 155.956 218.720,155.600 219.278,155.600 219.646 C 155.600 220.013,155.330 220.418,155.000 220.545 C 154.670 220.671,154.400 221.097,154.400 221.491 C 154.400 221.885,154.026 222.441,153.570 222.726 C 152.865 223.166,152.817 223.347,153.256 223.922 C 153.541 224.295,153.621 224.471,153.434 224.314 C 152.965 223.919,151.550 224.733,151.684 225.321 C 151.744 225.584,150.850 226.763,149.697 227.941 C 148.544 229.118,147.600 230.319,147.600 230.610 C 147.600 231.223,145.534 233.386,144.610 233.741 C 144.265 233.873,143.869 234.275,143.732 234.633 C 143.595 234.991,142.890 235.931,142.166 236.721 C 141.442 237.511,140.942 238.306,141.055 238.489 C 141.167 238.671,141.111 238.794,140.930 238.763 C 140.106 238.619,139.852 238.850,140.400 239.244 C 140.909 239.610,140.896 239.642,140.312 239.455 C 139.363 239.151,138.132 240.371,138.870 240.884 C 139.234 241.137,139.128 241.176,138.533 241.010 C 137.829 240.813,137.703 240.908,137.863 241.518 C 137.997 242.033,137.703 242.497,136.930 242.992 L 135.800 243.715 136.800 242.570 C 137.527 241.736,137.582 241.582,137.000 242.003 C 135.265 243.259,133.568 245.225,133.840 245.665 C 134.024 245.962,133.946 246.014,133.617 245.811 C 133.143 245.517,130.803 247.751,130.801 248.500 C 130.800 248.665,130.598 248.800,130.351 248.800 C 130.041 248.800,130.056 248.615,130.400 248.200 C 131.350 247.055,130.192 247.614,128.716 249.013 C 127.715 249.962,127.315 250.634,127.486 251.079 C 127.672 251.564,127.572 251.675,127.109 251.497 C 126.762 251.364,126.356 251.378,126.206 251.528 C 126.056 251.677,125.800 251.800,125.638 251.800 C 124.982 251.800,123.998 253.132,124.504 253.336 C 124.813 253.461,124.752 253.549,124.343 253.568 C 123.981 253.586,123.583 253.867,123.458 254.193 C 123.333 254.520,122.972 254.687,122.656 254.566 C 122.340 254.445,121.945 254.566,121.779 254.835 C 121.567 255.176,121.645 255.222,122.038 254.985 C 122.511 254.700,122.516 254.750,122.068 255.303 C 121.775 255.664,120.920 256.162,120.168 256.411 C 119.404 256.663,118.800 257.132,118.800 257.474 C 118.800 257.839,118.570 257.997,118.229 257.867 C 117.479 257.579,116.719 258.523,117.036 259.349 C 117.205 259.790,117.070 260.000,116.619 260.000 C 116.212 260.000,116.065 259.818,116.242 259.532 C 116.439 259.213,116.309 259.149,115.833 259.332 C 115.449 259.479,115.059 259.600,114.967 259.600 C 114.875 259.600,114.800 259.791,114.800 260.024 C 114.800 260.257,114.980 260.336,115.200 260.200 C 115.420 260.064,115.600 260.141,115.600 260.372 C 115.600 260.602,115.195 260.748,114.700 260.695 C 114.156 260.638,113.840 260.798,113.900 261.100 C 113.955 261.375,113.646 261.600,113.213 261.600 C 112.781 261.600,111.752 262.275,110.927 263.100 C 110.101 263.925,109.195 264.547,108.913 264.482 C 108.631 264.418,108.400 264.563,108.400 264.806 C 108.400 265.053,108.179 265.115,107.900 264.947 C 107.540 264.731,107.549 264.831,107.932 265.302 C 108.404 265.886,108.343 265.937,107.378 265.762 C 106.219 265.552,104.538 266.852,105.000 267.601 C 105.140 267.827,104.963 267.884,104.580 267.737 C 104.217 267.598,103.784 267.702,103.620 267.968 C 103.455 268.235,103.048 268.493,102.716 268.542 C 101.322 268.746,99.600 271.702,99.600 273.890 C 99.600 274.642,99.330 275.527,99.000 275.857 C 98.670 276.187,98.400 277.074,98.400 277.829 C 98.400 278.583,98.201 279.200,97.957 279.200 C 97.714 279.200,97.616 279.465,97.740 279.789 C 97.866 280.117,97.628 280.615,97.201 280.914 C 96.619 281.322,96.458 281.858,96.531 283.155 C 96.583 284.093,96.457 284.964,96.251 285.092 C 96.034 285.226,96.013 285.103,96.200 284.800 C 96.414 284.454,96.367 284.373,96.062 284.562 C 95.808 284.719,95.600 285.627,95.600 286.581 C 95.600 287.812,95.412 288.387,94.950 288.564 C 94.431 288.763,94.338 289.218,94.491 290.807 C 94.596 291.903,94.518 292.800,94.318 292.800 C 94.117 292.800,94.084 292.575,94.245 292.300 C 94.406 292.025,94.185 292.108,93.755 292.484 C 93.325 292.860,92.933 293.760,92.884 294.484 C 92.818 295.471,92.895 295.650,93.192 295.200 C 93.470 294.779,93.590 294.753,93.594 295.113 C 93.597 295.394,93.298 295.741,92.929 295.883 C 92.329 296.113,92.340 296.172,93.029 296.442 C 93.734 296.718,93.738 296.746,93.076 296.772 C 92.678 296.787,92.452 296.961,92.574 297.158 C 92.696 297.355,92.527 297.619,92.200 297.745 C 91.792 297.901,91.625 298.484,91.668 299.594 C 91.713 300.747,91.523 301.368,91.011 301.743 C 90.493 302.121,90.342 302.625,90.476 303.535 C 90.617 304.497,90.510 304.801,90.031 304.806 C 89.477 304.811,89.474 304.860,90.000 305.200 C 90.400 305.458,90.433 305.590,90.100 305.594 C 89.767 305.598,89.600 306.270,89.600 307.600 C 89.600 309.170,89.462 309.600,88.957 309.600 C 88.560 309.600,88.399 309.822,88.537 310.180 C 88.690 310.578,88.567 310.686,88.144 310.523 C 87.684 310.347,87.548 310.530,87.608 311.243 C 87.788 313.383,87.604 314.625,87.200 314.000 C 86.987 313.670,86.803 313.580,86.791 313.800 C 86.710 315.321,86.254 317.478,85.928 317.878 C 85.714 318.141,85.589 319.311,85.651 320.478 C 85.738 322.120,85.632 322.600,85.182 322.600 C 84.770 322.600,84.564 323.166,84.477 324.538 C 84.385 325.978,84.478 326.399,84.838 326.176 C 85.163 325.976,85.220 326.044,85.011 326.383 C 84.580 327.079,85.591 327.633,86.451 327.173 C 86.833 326.968,87.269 326.396,87.419 325.900 C 87.724 324.894,89.830 322.763,90.177 323.110 C 90.300 323.233,90.400 323.023,90.400 322.643 C 90.400 322.263,90.568 322.056,90.772 322.183 C 90.977 322.309,91.258 322.230,91.396 322.007 C 91.534 321.783,91.462 321.600,91.236 321.600 C 91.010 321.600,90.930 321.325,91.059 320.990 C 91.252 320.488,91.405 320.470,91.923 320.890 C 92.411 321.284,92.485 321.287,92.253 320.900 C 92.045 320.553,92.259 320.400,92.953 320.400 C 93.503 320.400,94.063 320.222,94.197 320.005 C 94.334 319.784,94.185 319.707,93.861 319.832 C 93.542 319.954,93.162 319.862,93.017 319.627 C 92.855 319.365,93.163 319.200,93.814 319.200 C 94.553 319.200,94.941 318.947,95.093 318.366 C 95.234 317.826,95.412 317.696,95.598 317.996 C 95.786 318.301,96.602 317.762,97.969 316.430 C 99.115 315.314,100.221 314.400,100.427 314.400 C 100.632 314.400,100.779 314.265,100.753 314.100 C 100.631 313.329,100.854 312.865,101.457 312.634 C 102.009 312.421,102.032 312.479,101.600 313.000 C 101.168 313.521,101.191 313.579,101.743 313.366 C 102.105 313.228,102.400 312.966,102.400 312.785 C 102.400 312.604,102.805 312.398,103.300 312.328 C 103.795 312.258,104.203 312.020,104.206 311.800 C 104.218 311.029,104.854 310.400,105.624 310.400 C 106.051 310.400,106.400 310.220,106.400 310.000 C 106.400 309.780,106.676 309.600,107.013 309.600 C 107.349 309.600,107.729 309.330,107.855 309.000 C 107.982 308.670,108.302 308.400,108.567 308.400 C 108.832 308.400,109.424 308.051,109.882 307.624 C 110.340 307.197,110.834 306.967,110.979 307.112 C 111.124 307.257,111.112 307.037,110.953 306.622 C 110.752 306.098,110.806 305.957,111.132 306.158 C 111.418 306.335,111.600 306.187,111.600 305.777 C 111.600 305.297,111.834 305.168,112.424 305.322 C 112.929 305.454,113.334 305.317,113.467 304.969 C 113.587 304.656,114.116 304.400,114.643 304.400 C 115.243 304.400,115.600 304.167,115.600 303.776 C 115.600 303.407,115.412 303.269,115.138 303.438 C 114.845 303.619,114.785 303.547,114.974 303.242 C 115.187 302.898,115.417 302.882,115.785 303.187 C 116.367 303.671,117.713 303.307,117.374 302.758 C 117.252 302.561,117.433 302.400,117.776 302.400 C 118.119 302.400,118.400 302.119,118.400 301.776 C 118.400 301.433,118.592 301.271,118.827 301.416 C 119.061 301.561,119.466 301.395,119.727 301.048 C 119.987 300.700,120.600 300.356,121.090 300.284 C 121.579 300.213,122.104 300.029,122.256 299.877 C 122.409 299.725,122.908 299.586,123.367 299.568 C 123.825 299.551,123.975 299.446,123.700 299.335 C 123.425 299.224,123.200 298.988,123.200 298.811 C 123.200 298.634,123.425 298.497,123.700 298.507 C 125.446 298.572,126.181 298.376,125.600 298.000 C 124.950 297.580,124.872 297.610,127.000 297.457 C 127.440 297.426,127.751 297.162,127.690 296.870 C 127.630 296.579,127.765 296.455,127.990 296.594 C 128.216 296.733,128.400 296.662,128.400 296.436 C 128.400 296.210,128.670 296.129,129.000 296.255 C 129.330 296.382,129.600 296.286,129.600 296.043 C 129.600 295.799,130.041 295.600,130.580 295.600 C 131.119 295.600,131.727 295.302,131.931 294.937 C 132.136 294.572,132.640 294.234,133.051 294.186 C 134.477 294.021,136.376 293.128,136.288 292.665 C 136.240 292.409,136.515 292.253,136.900 292.318 C 137.285 292.382,137.600 292.247,137.600 292.018 C 137.600 291.788,138.146 291.600,138.813 291.600 C 139.521 291.600,140.121 291.351,140.255 291.000 C 140.382 290.670,140.901 290.400,141.409 290.400 C 141.918 290.400,142.393 290.224,142.467 290.009 C 142.540 289.795,143.319 289.527,144.198 289.415 C 145.077 289.303,145.857 289.029,145.931 288.806 C 146.006 288.583,146.651 288.400,147.365 288.400 C 148.454 288.400,148.658 288.255,148.632 287.500 C 148.604 286.711,148.819 286.588,150.384 286.500 C 151.412 286.443,152.301 286.162,152.483 285.837 C 152.657 285.526,153.139 285.364,153.563 285.474 C 154.076 285.609,154.389 285.432,154.517 284.937 C 154.688 284.276,154.712 284.272,154.754 284.900 C 154.810 285.756,155.827 285.829,156.145 285.000 C 156.271 284.670,156.831 284.400,157.387 284.400 C 157.944 284.400,158.400 284.198,158.400 283.951 C 158.400 283.628,158.559 283.634,158.964 283.970 C 159.299 284.248,159.623 284.286,159.761 284.064 C 159.957 283.746,161.145 283.450,163.500 283.134 C 163.775 283.097,164.000 282.816,164.000 282.510 C 164.000 282.203,164.200 282.076,164.445 282.228 C 164.689 282.379,165.032 282.272,165.207 281.989 C 165.381 281.707,166.096 281.492,166.795 281.512 C 167.743 281.539,168.010 281.403,167.845 280.974 C 167.574 280.267,168.055 280.229,168.779 280.900 C 169.210 281.300,169.261 281.300,169.035 280.900 C 168.791 280.468,171.343 280.107,172.900 280.353 C 173.065 280.379,173.200 280.258,173.200 280.085 C 173.200 279.912,173.589 279.741,174.064 279.705 C 174.539 279.669,175.076 279.406,175.258 279.120 C 175.526 278.697,175.589 278.699,175.594 279.133 C 175.598 279.507,176.004 279.611,176.958 279.482 C 178.823 279.231,179.306 278.856,179.055 277.855 C 178.845 277.022,178.855 277.020,179.420 277.776 C 179.919 278.445,180.137 278.386,180.080 277.599 C 180.072 277.488,180.605 277.390,181.264 277.381 C 182.340 277.367,182.390 277.418,181.754 277.883 C 181.190 278.296,181.168 278.400,181.648 278.400 C 181.979 278.400,182.621 278.054,183.075 277.631 C 183.709 277.040,184.012 276.970,184.377 277.331 C 184.743 277.691,184.974 277.637,185.371 277.100 C 185.781 276.545,186.490 276.400,188.787 276.400 C 190.969 276.400,191.637 276.274,191.490 275.891 C 191.344 275.510,191.861 275.403,193.538 275.467 C 194.925 275.520,195.898 275.371,196.085 275.077 C 196.315 274.715,196.389 274.721,196.394 275.100 C 196.403 275.812,199.009 275.734,199.743 275.000 C 200.099 274.644,201.077 274.400,202.148 274.400 C 203.141 274.400,204.064 274.220,204.200 274.000 C 204.336 273.780,204.627 273.600,204.847 273.600 C 205.067 273.600,205.143 273.769,205.015 273.975 C 204.676 274.524,209.705 274.321,210.281 273.762 C 210.545 273.505,210.635 273.155,210.481 272.983 C 210.326 272.812,210.445 272.814,210.745 272.987 C 211.056 273.167,211.412 273.104,211.576 272.839 C 211.774 272.518,213.860 272.376,218.348 272.377 C 221.916 272.378,224.739 272.224,224.622 272.035 C 224.271 271.468,225.463 271.394,232.951 271.518 C 239.305 271.623,240.019 271.702,239.351 272.219 C 238.624 272.784,238.625 272.795,239.400 272.573 C 239.991 272.405,239.938 272.505,239.200 272.958 C 238.650 273.296,237.547 273.578,236.749 273.586 C 235.951 273.594,235.076 273.868,234.804 274.196 C 234.532 274.523,234.158 274.698,233.973 274.583 C 233.516 274.301,231.562 274.815,231.776 275.162 C 231.870 275.314,231.782 275.700,231.580 276.019 C 231.328 276.418,231.210 276.443,231.206 276.100 C 231.203 275.812,230.690 275.600,230.000 275.600 C 229.340 275.600,228.800 275.774,228.800 275.987 C 228.800 276.201,229.115 276.262,229.500 276.124 C 229.885 275.986,230.081 276.005,229.937 276.166 C 229.792 276.328,229.395 276.501,229.056 276.551 C 228.716 276.600,228.028 276.992,227.526 277.421 C 226.878 277.974,226.765 278.004,227.137 277.523 C 227.591 276.935,227.553 276.853,226.847 276.906 C 226.400 276.940,226.108 277.041,226.198 277.131 C 226.509 277.443,225.255 278.400,224.529 278.405 C 223.162 278.416,222.055 278.878,222.240 279.361 C 222.370 279.698,222.001 279.793,221.013 279.677 C 220.227 279.586,219.600 279.690,219.600 279.913 C 219.600 280.331,217.695 281.004,217.000 280.832 C 216.780 280.778,216.732 280.866,216.894 281.027 C 217.055 281.189,216.875 281.564,216.494 281.861 C 215.852 282.362,215.860 282.384,216.600 282.163 C 217.167 281.994,217.247 282.034,216.874 282.302 C 216.585 282.509,215.938 282.601,215.437 282.505 C 214.930 282.408,214.245 282.612,213.892 282.965 C 213.543 283.314,212.874 283.600,212.405 283.600 C 211.936 283.600,211.651 283.760,211.772 283.955 C 211.893 284.150,211.741 284.517,211.434 284.771 C 211.013 285.121,210.840 285.120,210.722 284.767 C 210.515 284.146,207.987 284.691,208.110 285.330 C 208.159 285.588,207.953 285.748,207.651 285.684 C 207.287 285.606,207.188 285.791,207.357 286.231 C 207.562 286.767,207.417 286.858,206.606 286.703 C 205.930 286.574,205.600 286.689,205.600 287.055 C 205.600 287.368,205.179 287.600,204.613 287.600 C 203.922 287.600,203.691 287.771,203.844 288.171 C 204.005 288.591,203.838 288.683,203.210 288.519 C 202.642 288.370,202.086 288.586,201.547 289.165 C 201.045 289.704,200.463 289.947,200.016 289.805 C 199.558 289.660,199.201 289.820,199.038 290.245 C 198.823 290.805,198.880 290.831,199.391 290.408 C 199.808 290.062,200.000 290.044,200.000 290.351 C 200.000 290.806,199.528 290.943,198.349 290.829 C 197.991 290.795,197.596 291.034,197.470 291.361 C 197.345 291.688,196.519 292.172,195.634 292.437 C 194.750 292.702,194.121 293.072,194.237 293.259 C 194.352 293.447,194.099 293.600,193.673 293.600 C 193.247 293.600,192.676 293.868,192.404 294.196 C 192.132 294.523,191.770 294.705,191.600 294.600 C 191.430 294.495,191.191 294.790,191.069 295.256 C 190.918 295.835,190.643 296.025,190.203 295.857 C 189.828 295.713,189.661 295.775,189.803 296.005 C 189.937 296.222,189.767 296.423,189.424 296.450 C 188.353 296.536,188.223 296.593,187.308 297.388 C 186.659 297.953,186.550 298.246,186.908 298.467 C 187.187 298.640,186.881 298.734,186.200 298.686 C 185.540 298.639,184.955 298.735,184.900 298.900 C 184.675 299.574,183.370 300.652,182.952 300.508 C 182.705 300.423,182.223 300.634,181.880 300.977 C 181.537 301.320,180.990 301.600,180.664 301.600 C 180.338 301.600,179.650 302.095,179.136 302.700 C 178.621 303.305,178.001 303.800,177.759 303.800 C 177.093 303.800,173.982 306.447,174.212 306.819 C 174.416 307.150,172.865 307.830,172.270 307.669 C 172.089 307.620,171.055 308.485,169.972 309.590 C 168.890 310.696,167.811 311.600,167.576 311.600 C 167.341 311.600,166.271 312.500,165.200 313.600 C 164.129 314.700,163.015 315.603,162.726 315.607 C 162.151 315.615,159.600 318.502,159.600 319.145 C 159.600 319.365,159.195 319.606,158.700 319.682 C 158.205 319.757,157.845 320.040,157.900 320.309 C 157.955 320.579,157.865 320.762,157.700 320.715 C 157.068 320.536,155.600 321.828,155.600 322.563 C 155.600 322.987,155.495 323.228,155.367 323.100 C 155.027 322.760,153.600 324.295,153.600 325.000 C 153.600 325.537,154.067 325.774,154.886 325.652 C 155.043 325.629,155.063 325.893,154.930 326.238 C 154.756 326.692,154.607 326.734,154.394 326.391 C 154.218 326.106,154.005 326.069,153.863 326.299 C 153.732 326.510,154.078 326.889,154.631 327.142 C 155.964 327.749,335.375 327.807,335.000 327.200 C 334.864 326.980,335.044 326.800,335.400 326.800 C 335.786 326.800,335.945 327.002,335.794 327.300 C 335.655 327.575,335.953 327.272,336.458 326.626 C 337.485 325.311,337.747 324.400,337.098 324.400 C 336.861 324.400,336.778 324.289,336.914 324.152 C 337.050 324.016,336.923 323.666,336.632 323.375 C 336.326 323.069,336.190 322.388,336.309 321.763 C 336.447 321.040,336.371 320.771,336.078 320.952 C 335.451 321.339,334.673 319.699,334.489 317.602 C 334.402 316.614,334.144 315.689,333.914 315.547 C 333.685 315.405,333.513 314.459,333.534 313.444 C 333.561 312.075,333.420 311.600,332.985 311.600 C 332.558 311.600,332.400 311.113,332.400 309.800 C 332.400 308.720,332.218 308.000,331.944 308.000 C 331.075 308.000,330.425 306.591,330.413 304.676 C 330.405 303.499,330.245 302.849,330.000 303.000 C 329.670 303.204,329.348 300.397,329.553 299.100 C 329.579 298.935,329.330 298.800,329.000 298.800 C 328.565 298.800,328.400 298.353,328.400 297.176 C 328.400 296.283,328.265 295.636,328.100 295.738 C 327.935 295.839,327.750 295.265,327.689 294.461 C 327.627 293.658,327.506 292.640,327.419 292.200 C 327.332 291.760,327.247 291.277,327.231 291.127 C 327.214 290.977,326.849 290.743,326.421 290.607 C 325.821 290.416,325.614 289.928,325.521 288.480 C 325.441 287.238,325.230 286.634,324.900 286.700 C 324.553 286.769,324.400 286.187,324.400 284.800 C 324.400 283.700,324.220 282.800,324.000 282.800 C 323.780 282.800,323.600 282.427,323.600 281.971 C 323.600 281.516,323.330 280.873,323.000 280.543 C 322.670 280.213,322.400 279.741,322.400 279.495 C 322.400 279.249,322.664 279.396,322.987 279.824 C 323.504 280.507,323.576 280.518,323.587 279.920 C 323.594 279.546,323.340 279.094,323.022 278.916 C 322.692 278.731,322.401 277.875,322.345 276.920 C 322.291 276.000,322.101 275.338,321.923 275.447 C 321.745 275.557,321.600 275.287,321.600 274.847 C 321.600 274.407,321.401 273.924,321.157 273.774 C 320.856 273.587,320.800 273.804,320.983 274.450 C 321.191 275.183,321.156 275.263,320.832 274.800 C 320.601 274.470,320.395 273.210,320.375 272.000 C 320.354 270.790,320.246 270.025,320.135 270.300 C 320.024 270.575,319.749 270.800,319.524 270.800 C 319.299 270.800,319.218 270.530,319.345 270.200 C 319.471 269.870,319.390 269.600,319.164 269.600 C 318.938 269.600,318.888 269.375,319.053 269.100 C 319.252 268.769,319.122 268.788,318.668 269.157 C 318.066 269.645,318.013 269.630,318.241 269.036 C 318.458 268.472,318.326 268.403,317.451 268.623 C 316.804 268.785,316.400 268.721,316.400 268.456 C 316.400 268.218,316.699 268.140,317.066 268.281 C 317.513 268.452,317.636 268.383,317.442 268.068 C 317.283 267.811,316.793 267.600,316.353 267.600 C 315.913 267.600,315.652 267.439,315.774 267.243 C 315.895 267.046,315.538 266.771,314.981 266.631 C 314.413 266.488,314.082 266.191,314.227 265.956 C 314.388 265.696,314.129 265.585,313.548 265.667 C 312.922 265.756,312.607 265.600,312.604 265.200 C 312.602 264.870,312.192 264.542,311.694 264.471 C 311.196 264.401,310.891 264.176,311.018 263.971 C 311.144 263.767,310.877 263.600,310.424 263.600 C 309.971 263.600,309.597 263.375,309.594 263.100 C 309.589 262.729,309.500 262.739,309.247 263.138 C 308.993 263.538,308.842 263.422,308.657 262.686 C 308.505 262.079,307.865 261.437,307.004 261.029 C 306.232 260.662,305.600 260.172,305.600 259.938 C 305.600 259.705,305.364 259.605,305.075 259.716 C 304.787 259.826,304.202 259.395,303.775 258.757 C 303.349 258.118,302.811 257.667,302.580 257.755 C 302.350 257.842,301.485 257.312,300.659 256.577 C 299.729 255.749,298.900 255.324,298.479 255.458 C 298.011 255.608,297.953 255.565,298.292 255.319 C 298.773 254.970,297.657 253.600,296.892 253.600 C 296.727 253.600,296.359 253.226,296.074 252.770 C 295.631 252.061,295.459 252.017,294.903 252.470 C 294.340 252.927,294.286 252.905,294.510 252.306 C 294.759 251.643,293.459 250.500,292.700 250.715 C 292.535 250.762,292.400 250.606,292.400 250.369 C 292.400 249.687,290.052 247.521,289.609 247.794 C 289.380 247.936,289.308 247.784,289.441 247.438 C 289.600 247.024,289.346 246.752,288.636 246.573 C 288.066 246.430,287.600 246.134,287.600 245.914 C 287.600 245.694,287.330 245.618,287.000 245.745 C 286.634 245.885,286.400 245.745,286.400 245.384 C 286.400 244.718,284.462 242.400,283.905 242.400 C 283.509 242.400,282.400 241.393,282.400 241.033 C 282.400 240.529,280.939 239.103,280.076 238.764 C 279.568 238.565,279.263 238.221,279.400 238.001 C 279.536 237.780,279.367 237.600,279.024 237.600 C 278.681 237.600,278.400 237.360,278.400 237.068 C 278.400 236.775,277.964 236.302,277.430 236.016 C 276.897 235.731,276.354 235.071,276.223 234.549 C 276.073 233.950,275.693 233.600,275.192 233.600 C 274.741 233.600,274.400 233.331,274.400 232.976 C 274.400 232.633,274.242 232.450,274.049 232.570 C 273.855 232.689,273.588 232.238,273.453 231.567 C 273.318 230.890,273.029 230.458,272.805 230.597 C 272.582 230.735,272.400 230.588,272.400 230.270 C 272.400 229.953,272.027 229.596,271.570 229.476 C 271.114 229.357,270.643 228.886,270.524 228.430 C 270.404 227.973,270.148 227.600,269.953 227.600 C 269.759 227.600,269.600 227.337,269.600 227.016 C 269.600 226.694,269.206 226.064,268.725 225.616 C 268.243 225.167,268.018 224.797,268.225 224.794 C 268.437 224.790,268.426 224.660,268.200 224.494 C 267.686 224.116,266.843 222.798,266.542 221.900 C 266.412 221.515,266.047 221.200,265.730 221.200 C 265.391 221.200,265.272 221.007,265.442 220.732 C 265.636 220.417,265.513 220.348,265.066 220.519 C 264.537 220.722,264.400 220.531,264.400 219.587 C 264.400 218.934,264.220 218.400,264.000 218.400 C 263.780 218.400,263.600 218.055,263.600 217.633 C 263.600 216.501,263.167 215.573,262.758 215.826 C 262.561 215.948,262.400 215.497,262.400 214.824 C 262.400 213.982,262.205 213.600,261.776 213.600 C 261.433 213.600,261.264 213.420,261.400 213.200 C 261.536 212.980,261.367 212.800,261.024 212.800 C 260.597 212.800,260.400 212.420,260.400 211.600 C 260.400 210.940,260.220 210.400,260.000 210.400 C 259.780 210.400,259.600 209.986,259.600 209.480 C 259.600 208.974,259.377 208.337,259.105 208.065 C 258.554 207.514,258.547 207.473,258.461 204.476 C 258.421 203.078,258.253 202.443,257.970 202.618 C 257.734 202.764,257.779 202.499,258.070 202.030 C 258.500 201.336,258.503 201.115,258.086 200.856 C 257.353 200.399,257.210 190.888,257.930 190.443 C 258.227 190.260,258.358 189.685,258.246 189.064 C 258.110 188.316,258.264 187.887,258.765 187.619 C 259.210 187.380,259.491 186.746,259.514 185.927 C 259.535 185.206,259.743 184.552,259.976 184.475 C 260.209 184.397,260.400 183.898,260.400 183.367 C 260.400 182.835,260.599 182.400,260.843 182.400 C 261.086 182.400,261.191 182.152,261.074 181.850 C 260.944 181.510,261.118 181.319,261.528 181.350 C 261.988 181.385,262.270 180.970,262.444 180.000 C 262.582 179.230,262.718 178.855,262.747 179.167 C 262.814 179.883,263.324 179.401,263.456 178.496 C 263.511 178.121,263.746 177.751,263.978 177.674 C 264.210 177.597,264.400 177.278,264.400 176.967 C 264.400 176.458,264.881 176.227,265.688 176.349 C 266.167 176.421,266.857 174.816,266.557 174.330 C 266.392 174.064,266.454 173.986,266.706 174.142 C 266.943 174.288,267.491 173.956,267.926 173.404 C 268.360 172.852,268.823 172.400,268.955 172.400 C 269.500 172.400,271.200 170.609,271.206 170.028 C 271.211 169.539,271.286 169.516,271.546 169.926 C 271.797 170.323,272.238 170.102,273.347 169.026 C 274.154 168.241,274.991 167.600,275.207 167.600 C 275.423 167.600,275.600 167.409,275.600 167.176 C 275.600 166.943,275.780 166.864,276.000 167.000 C 276.220 167.136,276.400 166.967,276.400 166.624 C 276.400 166.281,276.535 166.029,276.700 166.064 C 277.321 166.195,278.400 165.493,278.400 164.957 C 278.400 164.606,278.839 164.400,279.587 164.400 C 280.496 164.400,280.719 164.254,280.537 163.780 C 280.345 163.281,280.505 163.211,281.349 163.423 C 282.034 163.595,282.400 163.524,282.400 163.220 C 282.400 162.963,282.220 162.864,282.000 163.000 C 281.349 163.402,281.544 162.943,282.277 162.349 C 282.662 162.036,282.832 162.003,282.670 162.272 C 282.514 162.532,282.551 162.846,282.751 162.970 C 282.951 163.093,283.236 162.710,283.385 162.118 C 283.577 161.351,283.748 161.193,283.980 161.568 C 284.234 161.979,284.491 161.909,285.153 161.247 C 285.619 160.781,286.225 160.394,286.500 160.387 C 286.775 160.380,287.342 160.116,287.759 159.800 C 288.176 159.484,288.671 159.320,288.859 159.436 C 289.047 159.552,289.200 159.367,289.200 159.024 C 289.200 158.681,289.391 158.400,289.624 158.400 C 289.857 158.400,289.936 158.580,289.800 158.800 C 289.664 159.020,289.728 159.200,289.943 159.200 C 290.158 159.200,290.394 159.017,290.469 158.793 C 290.543 158.570,291.202 158.311,291.933 158.219 C 292.680 158.124,293.676 157.603,294.208 157.029 C 294.782 156.410,295.400 156.102,295.777 156.247 C 296.120 156.378,296.400 156.286,296.400 156.043 C 296.400 155.799,297.036 155.600,297.813 155.600 C 298.699 155.600,299.311 155.377,299.455 155.000 C 299.582 154.670,300.037 154.400,300.466 154.400 C 300.985 154.400,301.146 154.232,300.947 153.900 C 300.708 153.502,300.771 153.501,301.256 153.893 C 301.751 154.294,302.024 154.237,302.716 153.593 C 303.621 152.749,304.210 152.536,303.800 153.200 C 303.664 153.420,303.743 153.600,303.976 153.600 C 304.209 153.600,304.400 153.341,304.400 153.024 C 304.400 152.184,305.076 151.900,305.354 152.623 C 305.489 152.977,305.422 153.137,305.195 152.997 C 304.978 152.863,304.800 152.963,304.800 153.219 C 304.800 153.507,305.068 153.575,305.500 153.395 C 305.885 153.235,306.417 153.096,306.682 153.086 C 306.948 153.075,307.072 152.917,306.959 152.733 C 306.845 152.550,307.123 152.400,307.576 152.400 C 308.029 152.400,308.400 152.220,308.400 152.000 C 308.400 151.775,309.524 151.600,310.971 151.600 C 312.724 151.600,313.734 151.409,314.143 151.000 C 314.483 150.660,315.460 150.400,316.395 150.400 C 317.313 150.400,317.945 150.234,317.817 150.028 C 317.691 149.823,317.770 149.542,317.993 149.404 C 318.217 149.266,318.400 149.332,318.400 149.551 C 318.400 150.072,321.304 149.620,321.694 149.038 C 321.896 148.737,321.990 148.756,321.994 149.100 C 321.997 149.375,322.270 149.600,322.600 149.600 C 322.930 149.600,323.200 149.409,323.200 149.176 C 323.200 148.943,323.020 148.864,322.800 149.000 C 322.580 149.136,322.400 149.057,322.400 148.824 C 322.400 148.267,323.078 148.279,323.426 148.843 C 323.577 149.086,323.813 149.128,323.950 148.935 C 324.312 148.427,326.499 147.516,326.202 147.997 C 326.065 148.219,326.308 148.400,326.743 148.400 C 327.178 148.400,327.624 148.175,327.735 147.900 C 327.891 147.514,327.944 147.512,327.968 147.891 C 327.993 148.270,328.230 148.278,328.997 147.929 C 329.650 147.631,329.869 147.324,329.632 147.037 C 329.381 146.735,329.785 146.564,330.935 146.485 C 331.851 146.421,332.660 146.196,332.733 145.985 C 332.807 145.773,333.042 145.600,333.257 145.600 C 333.472 145.600,333.536 145.780,333.400 146.000 C 333.264 146.220,333.333 146.400,333.553 146.400 C 333.773 146.400,334.064 146.220,334.200 146.000 C 334.336 145.780,335.202 145.586,336.124 145.568 C 337.046 145.551,337.575 145.446,337.300 145.335 C 337.025 145.224,336.800 144.949,336.800 144.724 C 336.800 144.499,337.070 144.418,337.400 144.545 C 337.730 144.671,338.000 144.640,338.000 144.475 C 338.000 144.310,338.874 144.226,339.942 144.287 C 341.550 144.380,342.070 144.227,342.963 143.400 C 343.556 142.850,344.471 142.400,344.997 142.400 C 345.523 142.400,346.064 142.220,346.200 142.000 C 346.336 141.780,346.996 141.600,347.666 141.600 C 348.632 141.600,348.833 141.464,348.634 140.943 C 348.421 140.391,348.479 140.368,349.000 140.800 C 349.515 141.228,349.580 141.212,349.386 140.708 C 349.206 140.238,349.383 140.146,350.177 140.298 C 350.780 140.413,351.200 140.310,351.200 140.047 C 351.200 139.801,351.391 139.600,351.624 139.600 C 351.857 139.600,351.920 139.825,351.765 140.100 C 351.539 140.500,351.590 140.500,352.021 140.100 C 352.318 139.825,352.899 139.600,353.313 139.600 C 353.733 139.600,353.994 139.381,353.902 139.107 C 353.654 138.361,355.641 137.424,356.063 138.088 C 356.317 138.488,356.389 138.490,356.394 138.100 C 356.397 137.817,356.900 137.600,357.551 137.600 C 358.184 137.600,358.926 137.330,359.200 137.000 C 359.474 136.670,360.021 136.400,360.416 136.400 C 360.810 136.400,361.193 136.226,361.267 136.013 C 361.340 135.800,362.000 135.580,362.733 135.525 C 364.055 135.426,365.036 134.438,364.493 133.753 C 364.339 133.559,364.469 133.623,364.782 133.895 C 365.247 134.300,365.490 134.192,366.117 133.295 C 366.539 132.693,366.785 132.506,366.663 132.880 C 366.507 133.357,366.613 133.493,367.020 133.337 C 367.339 133.214,367.600 132.954,367.600 132.757 C 367.600 132.561,367.960 132.400,368.400 132.400 C 368.840 132.400,369.200 132.220,369.200 132.000 C 369.200 131.780,369.610 131.600,370.111 131.600 C 370.612 131.600,371.327 131.244,371.700 130.808 C 372.119 130.320,372.633 130.114,373.044 130.272 C 373.505 130.449,373.651 130.355,373.519 129.964 C 373.304 129.325,374.286 128.432,375.225 128.413 C 375.568 128.406,376.224 128.051,376.682 127.624 C 377.140 127.197,377.624 126.957,377.757 127.091 C 377.891 127.224,378.000 127.123,378.000 126.867 C 378.000 126.610,378.283 126.400,378.629 126.400 C 379.347 126.400,380.400 125.466,380.400 124.829 C 380.400 124.593,380.670 124.400,381.000 124.400 C 381.330 124.400,381.600 124.263,381.600 124.095 C 381.600 123.927,382.005 123.612,382.500 123.395 C 382.995 123.178,383.578 122.595,383.795 122.100 C 384.012 121.605,384.338 121.200,384.518 121.200 C 384.699 121.200,384.737 121.378,384.603 121.595 C 384.463 121.822,384.623 121.889,384.977 121.754 C 385.317 121.623,385.479 121.327,385.336 121.096 C 385.185 120.853,385.268 120.795,385.533 120.959 C 385.784 121.114,386.397 120.845,386.895 120.362 C 387.393 119.878,387.587 119.602,387.328 119.748 C 387.068 119.894,386.749 119.841,386.619 119.632 C 386.484 119.412,386.812 119.328,387.392 119.433 C 388.107 119.563,388.400 119.439,388.400 119.008 C 388.400 118.674,388.670 118.400,389.000 118.400 C 389.330 118.400,389.600 118.145,389.600 117.833 C 389.600 117.522,389.788 117.204,390.018 117.127 C 390.248 117.051,390.464 116.612,390.498 116.153 C 390.544 115.548,390.767 115.371,391.304 115.511 C 391.819 115.646,392.116 115.444,392.270 114.853 C 392.393 114.384,392.658 114.000,392.859 114.000 C 393.060 114.000,393.344 113.685,393.490 113.300 C 393.636 112.915,393.945 112.381,394.178 112.114 C 395.412 110.693,395.600 110.382,395.504 109.912 C 395.447 109.631,395.691 109.447,396.047 109.505 C 396.402 109.563,396.942 109.304,397.247 108.930 C 397.733 108.333,397.715 108.282,397.100 108.513 C 396.715 108.657,396.400 108.601,396.400 108.387 C 396.400 108.174,396.670 108.000,397.000 108.000 C 397.333 108.000,397.600 107.644,397.600 107.200 C 397.600 106.760,397.780 106.400,398.000 106.400 C 398.220 106.400,398.400 105.950,398.400 105.400 C 398.400 104.769,398.626 104.400,399.012 104.400 C 399.502 104.400,399.610 103.917,399.552 101.975 L 399.479 99.549 398.239 99.615 C 397.558 99.651,369.867 99.663,336.705 99.641 L 276.410 99.600 276.305 84.700 L 276.200 69.800 138.100 69.699 L -0.000 69.599 -0.000 71.023 M275.899 92.700 C 275.834 96.605,275.780 93.410,275.780 85.600 C 275.780 77.790,275.834 74.595,275.899 78.500 C 275.965 82.405,275.965 88.795,275.899 92.700 M76.896 152.541 C 77.131 152.395,77.210 152.460,77.071 152.685 C 76.933 152.909,76.325 152.998,75.721 152.883 C 74.750 152.697,74.714 152.640,75.411 152.390 C 75.845 152.235,76.260 152.264,76.334 152.456 C 76.408 152.648,76.661 152.686,76.896 152.541 M257.708 191.572 C 257.740 191.997,257.909 192.256,258.083 192.149 C 258.527 191.875,258.480 190.800,258.025 190.800 C 257.819 190.800,257.676 191.148,257.708 191.572 "
              stroke="none" fill="#9c9ca4" fill-rule="evenodd"></path>
        <path id="path1"
              d="M275.780 85.600 C 275.780 93.410,275.834 96.605,275.899 92.700 C 275.965 88.795,275.965 82.405,275.899 78.500 C 275.834 74.595,275.780 77.790,275.780 85.600 M9.039 82.338 C 8.900 82.561,8.982 82.865,9.220 83.012 C 9.835 83.393,10.232 82.872,9.718 82.358 C 9.431 82.071,9.207 82.064,9.039 82.338 M384.000 121.800 C 384.000 122.167,384.194 122.402,384.430 122.323 C 384.667 122.245,384.860 122.009,384.860 121.800 C 384.860 121.591,384.667 121.356,384.430 121.277 C 384.194 121.198,384.000 121.433,384.000 121.800 M354.529 138.162 C 353.902 138.509,353.760 138.808,354.022 139.223 C 354.291 139.648,354.389 139.663,354.394 139.282 C 354.397 138.998,354.708 138.818,355.085 138.882 C 355.480 138.950,355.832 138.703,355.915 138.300 C 356.079 137.503,355.771 137.472,354.529 138.162 M349.200 140.400 C 349.200 140.646,349.022 140.737,348.805 140.603 C 348.576 140.461,348.512 140.627,348.654 140.996 C 348.789 141.347,349.012 141.494,349.149 141.322 C 349.287 141.150,349.554 140.895,349.743 140.755 C 349.931 140.615,349.886 140.377,349.643 140.226 C 349.399 140.076,349.200 140.154,349.200 140.400 M338.000 144.321 C 338.000 144.571,337.730 144.671,337.400 144.545 C 337.070 144.418,336.800 144.514,336.800 144.757 C 336.800 145.001,337.059 145.200,337.376 145.200 C 338.029 145.200,338.604 144.471,338.240 144.107 C 338.108 143.975,338.000 144.071,338.000 144.321 M317.796 149.607 C 317.660 149.826,317.838 150.117,318.192 150.252 C 319.053 150.583,319.243 150.314,318.581 149.704 C 318.239 149.389,317.952 149.353,317.796 149.607 M72.602 151.997 C 72.478 152.197,72.731 152.549,73.163 152.780 C 74.210 153.341,74.417 153.310,74.157 152.631 C 73.882 151.916,72.899 151.516,72.602 151.997 M75.411 152.390 C 74.714 152.640,74.750 152.697,75.721 152.883 C 76.325 152.998,76.933 152.909,77.071 152.685 C 77.210 152.460,77.131 152.395,76.896 152.541 C 76.661 152.686,76.408 152.648,76.334 152.456 C 76.260 152.264,75.845 152.235,75.411 152.390 M304.538 152.617 C 304.408 152.957,304.413 153.347,304.551 153.484 C 304.688 153.621,304.800 153.513,304.800 153.243 C 304.800 152.973,304.978 152.863,305.195 152.997 C 305.422 153.137,305.489 152.977,305.353 152.621 C 305.052 151.837,304.838 151.836,304.538 152.617 M88.800 153.624 C 88.800 153.857,88.965 153.945,89.166 153.821 C 89.367 153.697,89.623 153.821,89.734 154.098 C 89.856 154.401,89.949 154.322,89.968 153.900 C 89.986 153.515,89.730 153.200,89.400 153.200 C 89.070 153.200,88.800 153.391,88.800 153.624 M109.000 156.400 C 108.864 156.620,109.134 156.800,109.600 156.800 C 110.066 156.800,110.336 156.620,110.200 156.400 C 110.064 156.180,109.794 156.000,109.600 156.000 C 109.406 156.000,109.136 156.180,109.000 156.400 M128.252 160.681 C 127.874 161.059,129.227 162.113,130.232 162.223 C 130.766 162.282,131.101 162.163,130.974 161.958 C 130.848 161.754,130.584 161.686,130.387 161.808 C 130.190 161.930,129.678 161.678,129.248 161.248 C 128.818 160.818,128.370 160.563,128.252 160.681 M141.293 166.478 C 141.380 166.741,141.946 167.089,142.550 167.250 C 143.320 167.456,143.600 167.403,143.487 167.072 C 143.398 166.812,142.918 166.660,142.419 166.733 C 141.847 166.816,141.611 166.706,141.780 166.433 C 141.927 166.195,141.842 166.000,141.590 166.000 C 141.339 166.000,141.205 166.215,141.293 166.478 M149.081 170.563 C 149.477 171.093,149.862 171.357,149.938 171.150 C 150.104 170.696,149.251 169.600,148.732 169.600 C 148.529 169.600,148.686 170.033,149.081 170.563 M257.549 190.500 C 257.298 190.991,257.389 192.330,257.662 192.162 C 257.855 192.042,257.897 191.757,257.755 191.528 C 257.614 191.298,257.746 190.953,258.049 190.761 C 258.448 190.509,258.462 190.411,258.100 190.406 C 257.825 190.403,257.577 190.445,257.549 190.500 M158.222 214.365 C 158.074 214.604,158.098 214.803,158.276 214.806 C 158.454 214.809,158.330 214.987,158.000 215.200 C 157.670 215.413,157.580 215.588,157.800 215.588 C 158.699 215.588,159.403 214.843,158.942 214.382 C 158.619 214.059,158.414 214.054,158.222 214.365 M141.733 237.438 C 141.733 237.747,141.973 238.000,142.267 238.000 C 142.560 238.000,142.800 237.839,142.800 237.643 C 142.800 237.446,142.560 237.193,142.267 237.081 C 141.973 236.968,141.733 237.129,141.733 237.438 M137.600 241.624 C 137.600 241.857,137.375 241.918,137.100 241.759 C 136.825 241.601,136.735 241.621,136.901 241.803 C 137.066 241.986,136.886 242.493,136.501 242.929 C 135.807 243.716,135.810 243.717,136.900 243.016 C 137.834 242.415,138.436 241.200,137.800 241.200 C 137.690 241.200,137.600 241.391,137.600 241.624 M121.293 255.380 C 120.126 256.024,119.756 256.400,120.289 256.400 C 120.521 256.400,121.136 256.046,121.656 255.613 C 122.726 254.722,122.614 254.650,121.293 255.380 M116.133 259.389 C 116.133 259.725,116.388 260.000,116.700 260.000 C 117.012 260.000,117.195 259.786,117.108 259.525 C 116.867 258.800,116.133 258.697,116.133 259.389 M225.027 271.559 C 224.601 271.726,224.430 271.971,224.646 272.105 C 224.862 272.238,225.283 272.196,225.583 272.011 C 225.882 271.825,226.414 271.764,226.764 271.875 C 227.318 272.050,227.323 272.020,226.800 271.644 C 226.115 271.151,226.074 271.149,225.027 271.559 M184.596 276.807 C 184.458 277.030,184.222 277.139,184.072 277.049 C 183.923 276.958,183.568 277.135,183.284 277.442 C 182.862 277.899,182.869 278.000,183.322 278.000 C 183.627 278.000,184.202 277.640,184.600 277.200 C 184.998 276.760,185.217 276.400,185.086 276.400 C 184.954 276.400,184.734 276.583,184.596 276.807 M167.866 281.027 C 168.135 281.729,168.192 281.732,168.731 281.084 C 169.054 280.694,168.973 280.553,168.402 280.510 C 167.898 280.472,167.719 280.644,167.866 281.027 M215.806 281.990 C 215.491 282.500,216.146 282.804,216.753 282.429 C 217.154 282.181,217.131 282.059,216.646 281.873 C 216.305 281.742,215.927 281.795,215.806 281.990 M206.200 286.400 C 206.064 286.620,206.334 286.800,206.800 286.800 C 207.266 286.800,207.536 286.620,207.400 286.400 C 207.264 286.180,206.994 286.000,206.800 286.000 C 206.606 286.000,206.336 286.180,206.200 286.400 M148.538 287.017 C 148.408 287.357,148.409 287.742,148.541 287.874 C 148.826 288.159,150.000 287.255,150.000 286.751 C 150.000 286.147,148.787 286.368,148.538 287.017 M199.796 290.007 C 199.658 290.230,199.390 290.317,199.200 290.200 C 199.010 290.083,198.750 290.157,198.621 290.366 C 198.144 291.138,199.127 291.157,200.010 290.392 C 200.512 289.956,200.725 289.600,200.485 289.600 C 200.244 289.600,199.934 289.783,199.796 290.007 M189.984 295.630 C 189.577 296.390,189.610 296.423,190.370 296.016 C 190.826 295.772,191.200 295.398,191.200 295.186 C 191.200 294.499,190.441 294.777,189.984 295.630 M330.444 306.000 C 330.418 306.824,331.368 308.003,332.044 307.987 C 332.417 307.978,332.324 307.742,331.762 307.273 C 331.301 306.887,330.820 306.308,330.694 305.986 C 330.495 305.480,330.461 305.482,330.444 306.000 M104.420 310.976 C 104.157 311.293,103.685 311.454,103.371 311.333 C 103.057 311.213,102.800 311.204,102.800 311.314 C 102.800 311.929,104.026 311.834,104.624 311.173 C 105.009 310.748,105.228 310.400,105.111 310.400 C 104.994 310.400,104.683 310.659,104.420 310.976 M101.010 313.048 C 100.653 313.404,100.485 313.809,100.636 313.948 C 100.786 314.086,100.990 313.974,101.089 313.698 C 101.188 313.421,101.403 313.278,101.567 313.380 C 101.732 313.482,101.867 313.303,101.867 312.982 C 101.867 312.250,101.803 312.254,101.010 313.048 M334.655 319.111 C 334.549 319.282,334.783 319.847,335.174 320.366 C 335.604 320.936,335.989 321.142,336.146 320.887 C 336.290 320.654,336.144 320.201,335.823 319.880 C 335.501 319.558,335.350 319.184,335.486 319.048 C 335.622 318.911,335.534 318.800,335.290 318.800 C 335.047 318.800,334.761 318.940,334.655 319.111 M93.120 319.680 C 93.493 320.053,93.707 320.053,94.080 319.680 C 94.453 319.307,94.347 319.200,93.600 319.200 C 92.853 319.200,92.747 319.307,93.120 319.680 M91.030 321.067 C 90.917 321.360,91.070 321.600,91.370 321.600 C 91.669 321.600,92.007 321.360,92.119 321.067 C 92.232 320.773,92.079 320.533,91.779 320.533 C 91.480 320.533,91.142 320.773,91.030 321.067 M335.880 325.772 C 335.210 326.280,335.227 326.314,336.129 326.259 C 336.725 326.223,337.024 326.007,336.906 325.700 C 336.678 325.105,336.768 325.098,335.880 325.772 M153.600 326.048 C 153.600 326.268,153.811 326.317,154.068 326.158 C 154.383 325.964,154.452 326.087,154.281 326.534 C 153.940 327.422,154.272 327.386,154.756 326.483 C 155.060 325.913,154.981 325.754,154.370 325.708 C 153.946 325.676,153.600 325.829,153.600 326.048 "
              stroke="none" fill="#a09ca4" fill-rule="evenodd"></path>
    </g>
</svg>